<?xml version="1.0" standalone="no"?>
<!DOCTYPE svg PUBLIC "-//W3C//DTD SVG 20010904//EN"
 "http://www.w3.org/TR/2001/REC-SVG-20010904/DTD/svg10.dtd">
<svg version="1.0" xmlns="http://www.w3.org/2000/svg"
 width="603.000000pt" height="603.000000pt" viewBox="0 0 603.000000 603.000000"
 preserveAspectRatio="xMidYMid meet">
<metadata>
Created by potrace 1.11, written by Peter Selinger 2001-2013
</metadata>
<g transform="translate(0.000000,603.000000) scale(0.100000,-0.100000)"
fill="#000000" stroke="none">
<path d="M2625 4488 c-25 -14 -60 -43 -155 -128 -104 -93 -244 -217 -490 -436
-80 -71 -150 -133 -156 -139 -6 -5 -42 -37 -80 -71 -153 -135 -762 -676 -798
-709 -6 -5 -49 -44 -96 -85 -47 -41 -90 -79 -96 -85 -6 -5 -44 -39 -84 -75
-404 -357 -439 -391 -450 -430 -13 -48 9 -110 47 -135 15 -10 191 -51 407 -96
209 -43 908 -186 1551 -319 776 -160 1181 -239 1202 -235 18 3 57 29 95 62 34
31 97 86 138 123 41 37 158 140 260 231 102 90 201 178 220 195 19 17 163 145
320 284 157 140 319 284 360 320 41 37 284 253 540 480 256 227 473 425 482
439 37 54 11 143 -49 175 -16 8 -53 19 -83 25 -30 5 -199 40 -375 76 -338 70
-639 132 -1555 320 -710 145 -882 181 -997 205 -106 23 -130 24 -158 8z m365
-311 c63 -14 940 -194 2125 -437 160 -33 301 -63 315 -66 24 -6 24 -6 -20 -47
-83 -75 -135 -122 -220 -197 -47 -41 -87 -77 -90 -80 -3 -3 -43 -39 -90 -80
-47 -41 -101 -89 -120 -106 -19 -17 -100 -89 -180 -160 -80 -70 -147 -131
-150 -134 -3 -3 -61 -55 -130 -115 -69 -60 -141 -124 -160 -141 -19 -18 -125
-112 -235 -209 -110 -98 -218 -194 -240 -214 -22 -20 -78 -70 -125 -111 -47
-41 -102 -90 -122 -109 -78 -70 -72 -73 -102 42 -15 56 -29 109 -31 117 -2 8
-18 67 -35 130 -17 63 -33 123 -35 133 -2 9 -6 21 -9 25 -3 5 -7 19 -10 33 -2
13 -14 60 -26 104 -12 44 -23 87 -25 95 -2 8 -40 150 -84 315 -44 165 -90 336
-102 380 -12 44 -32 118 -45 165 -12 47 -38 144 -57 215 -88 330 -118 441
-124 459 -6 21 -5 21 127 -7z m-370 -43 c0 -6 144 -548 164 -619 8 -27 31
-111 51 -185 19 -74 71 -268 114 -430 44 -162 91 -338 105 -390 14 -52 41
-156 61 -230 20 -74 38 -142 40 -150 2 -8 21 -78 42 -156 l39 -141 -66 14
c-36 8 -490 101 -1010 208 -520 107 -1077 221 -1238 255 -162 33 -297 60 -300
60 -7 0 -1 6 128 120 47 41 87 77 90 80 3 3 43 39 90 80 47 41 103 91 125 111
22 20 144 128 270 240 127 112 246 218 265 235 19 17 121 107 225 200 163 145
218 194 279 249 6 6 88 78 181 160 162 143 198 175 290 258 38 34 55 44 55 31z"/>
</g>
</svg>
