<svg width="550" height="300" xmlns="http://www.w3.org/2000/svg" xmlns:svg="http://www.w3.org/2000/svg">
 <g>
  <title>Layer 1</title>
  <path stroke="#cccccc" id="svg_21" transform="rotate(-23.362529754638672 272.2431945800782,117.1022644042969) " fill="none" stroke-width="8" stroke-miterlimit="4" d="m272.2432,105.72555l0,22.75344"/>
  <path stroke="#cccccc" fill="none" stroke-width="8" stroke-miterlimit="4" d="m25.52734,109.12501l245.64843,0" id="svg_33"/>
  <path stroke="#5656ff" fill="none" stroke-width="8" stroke-miterlimit="4" d="m267.65041,122.29981l116.52733,0" id="svg_32"/>
  <path fill="none" stroke-width="8" stroke="#cccccc" stroke-miterlimit="4" d="m36.625,22.78126l0,98.4375" id="svg_34"/>
  <path stroke="rgb(33.72549%,33.72549%,100%)" id="svg_20" transform="rotate(-23.362529754638672 306.57901000976574,198.27612304687514) " fill="none" stroke-width="8" stroke-miterlimit="4" d="m306.57902,114.61284l0,167.32656"/>
  <path fill-opacity="0" id="svg_1" fill="#000000" stroke-width="8" stroke="#5656ff" stroke-miterlimit="4" d="m24.10547,24.23047l362.2461,0"/>
  <path stroke="rgb(33.72549%,33.72549%,100%)" id="svg_3" fill="none" stroke-width="8" stroke-miterlimit="4" d="m22.94922,26.48047l0,99.70313"/>
  <path id="svg_4" fill="none" stroke-width="8" stroke-miterlimit="4" d="m19.07813,123.16797l243.79297,0" stroke="rgb(33.72549%,33.72549%,100%)"/>
  <path id="svg_5" fill="none" stroke-width="8" stroke="rgb(100%,33.72549%,33.72549%)" stroke-miterlimit="4" d="m22.83203,126.75l0,158.4375"/>
  <path stroke="rgb(33.72549%,33.72549%,100%)" transform="rotate(-23.362529754638672 296.76379394531244,193.0624084472655) " id="svg_7" fill="none" stroke-width="8" stroke-miterlimit="4" d="m296.76378,107.17482l0,171.77515"/>
  <path stroke="#5656ff" id="svg_8" fill="none" stroke-width="8" stroke-miterlimit="4" d="m382.61329,21.05469l0,105.80078"/>
  <path id="svg_9" fill="none" stroke-width="8" stroke-miterlimit="4" d="m29.5625,25.91407l0,98.4375" stroke="rgb(33.72549%,33.72549%,100%)"/>
  <path id="svg_10" fill-rule="nonzero" fill="rgb(0%,0%,100%)" stroke-width="5" stroke="rgb(33.72549%,33.72549%,100%)" stroke-miterlimit="4" d="m43.53711,23.16797c0,-7.73438 -6.26954,-14.00001 -13.99999,-14.00001c-7.73047,0 -14.00001,6.26564 -14.00001,14.00001c0,7.73046 6.26954,13.99999 14.00001,13.99999c7.73046,0 13.99999,-6.26953 13.99999,-13.99999zm0,0"/>
  <path stroke="rgb(33.72549%,33.72549%,100%)" id="svg_11" fill="none" stroke-width="8" stroke-miterlimit="4" d="m19.67578,116.53125l246.55735,0"/>
  <path id="svg_12" fill="none" stroke-width="8" stroke="#cccccc" stroke-miterlimit="4" d="m385.54004,24.15625l143.69532,0"/>
  <path id="svg_16" fill="none" stroke-width="8" stroke="#cccccc" stroke-miterlimit="4" d="m389.52344,23.29297l0,110.79297"/>
  <path id="svg_17" fill="none" stroke="rgb(100%,100%,100%)" stroke-miterlimit="4" d="m26.97313,64.95253l0,21.35938"/>
  <path stroke="rgb(100%,100%,100%)" id="svg_18" fill="none" stroke-miterlimit="4" d="m22.06195,80.65504l4.45786,5.23948"/>
  <path stroke="rgb(100%,100%,100%)" id="svg_19" fill="none" stroke-miterlimit="4" d="m31.70302,80.51827l-4.69611,5.47636"/>
  <path id="svg_23" fill="none" stroke-width="8" stroke="rgb(100%,33.72549%,33.72549%)" stroke-miterlimit="4" d="m29.82812,128.59375l0,145.78125"/>
  <path stroke="rgb(100%,100%,100%)" id="svg_25" fill="none" stroke-miterlimit="4" d="m26.43359,196.13281l-4.62793,6.46875"/>
  <path stroke="rgb(100%,100%,100%)" id="svg_26" fill="none" stroke-miterlimit="4" d="m25.82464,196.12659l4.98243,5.96387"/>
  <path id="svg_30" fill="none" stroke="rgb(100%,100%,100%)" stroke-miterlimit="4" d="m26.19777,197.13902l0,21.35938"/>
  <path id="svg_24" fill-rule="nonzero" fill="rgb(49.803922%,0%,0%)" stroke-width="5" stroke="rgb(100%,33.72549%,33.72549%)" stroke-miterlimit="4" d="m40.78907,279.76563c0,-7.73048 -6.26953,-14 -14.00001,-14c-7.73438,0 -14,6.26952 -14,14c0,7.73048 6.26562,14 14,14c7.73047,0 14.00001,-6.26952 14.00001,-14zm0,0"/>
  <path id="svg_2" transform="rotate(-23.362529754638672 289.95822143554676,196.51432800292963) " fill="none" stroke-width="8" stroke-miterlimit="4" d="m289.95823,109.90246l0,173.22372" stroke="rgb(33.72549%,33.72549%,100%)"/>
  <path id="svg_14" fill="none" stroke-width="8" stroke-miterlimit="4" d="m18.9922,130.13281l366.63281,0" stroke="rgb(100%,33.72549%,33.72549%)"/>
  <path stroke="rgb(100%,33.72549%,33.72549%)" id="svg_15" fill="none" stroke-width="8" stroke-miterlimit="4" d="m21.45313,136.8952l369.30468,0"/>
  <path id="svg_29" fill-rule="nonzero" fill="rgb(0%,0%,100%)" stroke-width="5" stroke="rgb(33.72549%,33.72549%,100%)" stroke-miterlimit="4" d="m346.99219,277.625c0,-7.73046 -6.26562,-14 -14,-14c-7.73047,0 -13.99999,6.26954 -13.99999,14c0,7.73438 6.26952,14.00001 13.99999,14.00001c7.73438,0 14,-6.26563 14,-14.00001zm0,0"/>
  <line id="svg_42" y2="205.25001" x2="301.75" y1="182.75001" x1="291.25" stroke-linecap="null" stroke-linejoin="null" stroke-dasharray="null" stroke="#ffffff" fill="none"/>
  <line transform="rotate(8.637041091918945 302.27151489257824,200.740737915039) " stroke="#ffffff" id="svg_45" y2="196.5879" x2="302.2715" y1="204.89356" x1="302.2715" stroke-linecap="null" stroke-linejoin="null" stroke-dasharray="null" stroke-width="null" fill="none"/>
  <line id="svg_46" y2="205.13087" x2="301.55959" y1="199.67286" x1="293.96584" stroke-linecap="null" stroke-linejoin="null" stroke-dasharray="null" stroke-width="null" stroke="#ffffff" fill="none"/>
  <path id="svg_6" fill="none" stroke-width="8" stroke-miterlimit="4" d="m453.34214,-13.67287l0,178.36356" transform="rotate(51.31437683105469 453.34213256835943,75.5089111328125) " stroke="rgb(100%,33.72549%,33.72549%)"/>
  <path fill="none" stroke-width="8" stroke-miterlimit="4" d="m457.87179,-7.15767l0,178.36355" transform="rotate(51.31437683105469 457.8717956542968,82.02410888671874) " stroke="rgb(100%,33.72549%,33.72549%)" id="svg_22"/>
  <path id="svg_13" fill-rule="nonzero" fill="rgb(49.803922%,0%,0%)" stroke-width="5" stroke="rgb(100%,33.72549%,33.72549%)" stroke-miterlimit="4" d="m541.46095,20.77734c0,-7.73438 -6.26564,-14.00001 -14.00001,-14.00001c-7.73046,0 -13.99999,6.26564 -13.99999,14.00001c0,7.73046 6.26953,13.99999 13.99999,13.99999c7.73438,0 14.00001,-6.26953 14.00001,-13.99999zm0,0"/>
  <text font-style="italic" xml:space="preserve" text-anchor="middle" font-family="serif" font-size="10" id="svg_28" y="26.22852" x="28.75002" stroke-linecap="null" stroke-linejoin="null" stroke-dasharray="null" stroke-width="0" stroke="rgb(33.72549%,33.72549%,100%)" fill="#ffffff">O</text>
  <text id="svg_27" font-style="italic" xml:space="preserve" text-anchor="middle" font-family="serif" font-size="10" y="283.00977" x="26.62502" stroke-linecap="null" stroke-linejoin="null" stroke-dasharray="null" stroke-width="0" stroke="rgb(33.72549%,33.72549%,100%)" fill="#ffffff">O</text>
  <text id="svg_31" font-style="italic" xml:space="preserve" text-anchor="middle" font-family="serif" font-size="10" y="280.50978" x="331.62502" stroke-linecap="null" stroke-linejoin="null" stroke-dasharray="null" stroke-width="0" stroke="rgb(33.72549%,33.72549%,100%)" fill="#ffffff">d</text>
  <text id="svg_35" font-style="italic" xml:space="preserve" text-anchor="middle" font-family="serif" font-size="10" y="23.25978" x="526.75001" stroke-linecap="null" stroke-linejoin="null" stroke-dasharray="null" stroke-width="0" stroke="rgb(33.72549%,33.72549%,100%)" fill="#ffffff">d</text>
 </g>
</svg>